HIERARCHY
ROOT Hips
{
	OFFSET 0.00 0.00 0.00
	CHANNELS 6 Xposition Yposition Zposition Xrotation Yrotation Zrotation
	JOINT Spine
	{
		OFFSET 0.00000 7.06766 0.00000
		CHANNELS 3 Xrotation Yrotation Zrotation
		JOINT Head
		{
			OFFSET 0.00000 15.03989 0.00000
			CHANNELS 3 Xrotation Yrotation Zrotation
			End Site
			{
				OFFSET 0.00000 4.52755 0.00000
			}
		}
		JOINT LeftShoulder
		{
			OFFSET 0.00000 10.53037 0.00000
			CHANNELS 3 Xrotation Yrotation Zrotation
			JOINT LeftArm
			{
				OFFSET 7.02886 0.00000 0.00000
				CHANNELS 3 Xrotation Yrotation Zrotation
				JOINT LeftForeArm
				{
					OFFSET 10.79770 0.00000 0.00000
					CHANNELS 3 Yrotation Zrotation Xrotation
					JOINT LeftHand
					{
						OFFSET 7.90744 0.00000 0.00000
						CHANNELS 3 Xrotation Yrotation Zrotation
						JOINT LeftHandThumb1
						{
							OFFSET 0.00000 0.00000 0.00000
							CHANNELS 3 Xrotation Zrotation Yrotation
							End Site
							{
								OFFSET 0.00000 0.00000 3.93700
							}
						}
						End Site
						{
							OFFSET 3.93700 0.00000 0.00000
						}
					}
				}
			}
		}
		JOINT RightShoulder
		{
			OFFSET 0.00000 10.53037 0.00000
			CHANNELS 3 Xrotation Yrotation Zrotation
			JOINT RightArm
			{
				OFFSET -7.02886 0.00000 0.00000
				CHANNELS 3 Xrotation Yrotation Zrotation
				JOINT RightForeArm
				{
					OFFSET -10.79770 0.00000 0.00000
					CHANNELS 3 Yrotation Zrotation Xrotation
					JOINT RightHand
					{
						OFFSET -7.90744 0.00000 0.00000
						CHANNELS 3 Xrotation Yrotation Zrotation
						JOINT RightHandThumb1
						{
							OFFSET 0.00000 0.00000 0.00000
							CHANNELS 3 Xrotation Zrotation Yrotation
							End Site
							{
								OFFSET 0.00000 0.00000 3.93700
							}
						}
						End Site
						{
							OFFSET -3.93700 0.00000 0.00000
						}
					}
				}
			}
		}
	}
	JOINT LeftUpLeg
	{
		OFFSET 4.01300 0.00000 0.00000
		CHANNELS 3 Xrotation Yrotation Zrotation
		JOINT LeftLeg
		{
			OFFSET 0.00000 -16.89976 0.00000
			CHANNELS 3 Xrotation Yrotation Zrotation
			JOINT LeftFoot
			{
				OFFSET 0.00000 -17.38918 0.00000
				CHANNELS 3 Xrotation Yrotation Zrotation
				JOINT LeftToeBase
				{
					OFFSET 0.00000 -1.27456 4.75673
					CHANNELS 3 Xrotation Yrotation Zrotation
					End Site
					{
						OFFSET 0.00000 0.00000 2.95275
					}
				}
			}
		}
	}
	JOINT RightUpLeg
	{
		OFFSET -4.01300 0.00000 0.00000
		CHANNELS 3 Xrotation Yrotation Zrotation
		JOINT RightLeg
		{
			OFFSET 0.00000 -16.89976 0.00000
			CHANNELS 3 Xrotation Yrotation Zrotation
			JOINT RightFoot
			{
				OFFSET 0.00000 -17.38918 0.00000
				CHANNELS 3 Xrotation Yrotation Zrotation
				JOINT RightToeBase
				{
					OFFSET 0.00000 -1.27456 4.75673
					CHANNELS 3 Xrotation Yrotation Zrotation
					End Site
					{
						OFFSET 0.00000 0.00000 2.95275
					}
				}
			}
		}
	}
}
MOTION
Frames: 20
Frame Time: 0.008333
 18.6261 35.6540 -19.0354 -179.2295 -4.6896 179.3135 -12.7961 1.6242 -0.8424 9.8626 -6.5840 -1.1503 -53.9008 -26.0287 -3.6363 -38.8199 -34.8984 -87.5389 2.5237 0.0000 15.6860 0.3723 5.1558 -4.1354 33.1476 -0.0000 26.2537 -10.6791 20.1844 -12.1346 -64.1246 36.4758 71.9737 6.7500 -0.0000 37.2916 -0.9553 4.2808 12.5928 32.8623 0.0000 -24.3270 5.9933 8.0167 0.0795 -4.8003 0.0000 0.0000 -17.2650 26.3619 4.2558 27.0663 -0.0000 0.0000 6.0626 -9.8864 1.6092 -2.5303 -0.0000 0.0000 -17.9793 -30.1445 -4.3988 23.9086 0.0000 -0.0000
 18.6306 35.6555 -19.0213 -179.1593 -4.7300 179.3243 -12.6587 1.6052 -0.8758 9.8339 -6.5644 -1.0706 -53.8740 -26.1975 -3.8101 -39.0051 -35.0863 -87.8993 2.5172 0.0000 16.1417 0.3701 4.9867 -4.2495 33.1476 -0.0000 26.2537 -10.5849 20.4105 -12.2271 -64.0956 36.6769 72.1415 6.7451 -0.0000 37.4358 -0.9515 4.2584 12.6080 32.8623 0.0000 -24.3270 6.0164 8.0146 0.0879 -4.7650 0.0000 -0.0000 -17.2349 26.3034 4.2338 27.0886 0.0000 -0.0000 6.0939 -9.8215 1.6062 -2.4918 0.0000 -0.0000 -18.0024 -30.2322 -4.4319 23.9030 0.0000 -0.0000
 18.6338 35.6563 -19.0104 -179.0884 -4.8275 179.3428 -12.5356 1.5358 -0.9290 9.8328 -6.5527 -0.9868 -53.8231 -26.3600 -3.9660 -39.1460 -35.3669 -88.1937 2.4804 0.0000 16.5076 0.3635 5.0883 -4.0919 33.1476 -0.0000 26.2537 -10.4735 20.5939 -12.2939 -64.1167 36.7319 72.2831 6.7735 -0.0000 37.5506 -0.9411 4.1339 12.8365 32.8623 0.0000 -24.3270 6.0411 7.9207 0.0905 -4.7321 -0.0000 0.0000 -17.2224 26.2936 4.2592 27.1025 0.0000 -0.0000 6.1554 -9.8776 1.6063 -2.4839 -0.0000 -0.0000 -18.0076 -30.2567 -4.4456 23.8729 0.0000 -0.0000
 18.6379 35.6573 -19.0012 -178.9808 -4.9039 179.3605 -12.3589 1.4689 -0.9873 9.7949 -6.5482 -0.8583 -53.7215 -26.4982 -4.0426 -39.3161 -35.7209 -88.4480 2.5575 0.0000 16.7521 0.3271 4.9331 -3.7984 33.1476 -0.0000 26.2537 -10.3793 20.7452 -12.2840 -63.9436 37.1605 72.2256 6.9243 -0.0000 37.4404 -0.8932 3.8628 13.0306 32.8623 0.0000 -24.3270 6.1068 7.8617 0.0986 -4.7023 -0.0000 -0.0000 -17.2154 26.2773 4.2177 27.1601 0.0000 -0.0000 6.2517 -9.9098 1.6087 -2.4724 -0.0000 -0.0000 -18.0267 -30.2738 -4.4709 23.9075 -0.0000 0.0000
 18.6417 35.6588 -18.9912 -178.9073 -4.9570 179.3768 -12.2345 1.4243 -1.0191 9.7765 -6.5272 -0.7921 -53.6606 -26.6097 -4.1250 -39.3345 -35.9906 -88.5956 2.5763 0.0000 17.1897 0.3094 4.7145 -3.7596 33.1476 -0.0000 26.2537 -10.3149 20.8630 -12.3587 -64.1329 36.7766 72.4682 6.8045 -0.0000 38.3107 -0.8700 3.7363 13.1173 32.8623 0.0000 -24.3270 6.1465 7.8152 0.1016 -4.6801 -0.0000 -0.0000 -17.1805 26.2676 4.2297 27.1227 0.0000 -0.0000 6.3074 -9.8988 1.6064 -2.4588 0.0000 -0.0000 -18.0326 -30.3296 -4.4853 23.9220 0.0000 -0.0000
 18.6443 35.6593 -18.9848 -178.7803 -4.9906 179.3911 -12.0731 1.3865 -1.0694 9.8587 -6.5064 -0.6460 -53.6808 -26.8472 -4.2520 -39.0624 -36.1039 -88.4959 2.5678 0.0000 17.6244 0.2944 4.8271 -3.4945 33.1476 -0.0000 26.2537 -10.4724 21.2052 -12.1119 -62.2944 39.2742 71.1176 7.4326 -0.0000 36.0980 -0.7631 3.1534 13.6111 32.8623 0.0000 -24.3270 6.2441 7.7946 0.1066 -4.6527 -0.0000 -0.0000 -17.1658 26.2523 4.2201 27.0771 0.0000 -0.0000 6.4198 -9.9101 1.6074 -2.4411 -0.0000 -0.0000 -18.0433 -30.3415 -4.4857 23.9213 -0.0000 0.0000
 18.6481 35.6600 -18.9760 -178.7077 -5.0113 179.3970 -11.9772 1.3554 -1.0968 9.9398 -6.4870 -0.5550 -53.6515 -27.0158 -4.3147 -38.7830 -36.2268 -88.3469 2.5869 0.0000 17.7853 0.2771 4.6032 -3.4486 33.1476 -0.0000 26.2537 -10.4069 21.3619 -12.0461 -61.6617 40.0628 70.5774 7.5193 -0.0000 35.7856 -0.7298 2.9906 13.7205 32.8623 0.0000 -24.3270 6.2936 7.8059 0.1123 -4.6527 -0.0000 -0.0000 -17.1551 26.2466 4.1986 26.9875 0.0000 0.0000 6.4764 -9.9062 1.6127 -2.4303 -0.0000 -0.0000 -18.0470 -30.3421 -4.4930 23.8678 -0.0000 0.0000
 18.6507 35.6624 -18.9689 -178.6272 -5.0141 179.4186 -11.8644 1.3600 -1.0861 9.9710 -6.4768 -0.5915 -53.7320 -27.1269 -4.4520 -38.2588 -36.3962 -88.0088 2.4876 0.0000 17.7626 0.2748 4.5678 -3.4461 33.1476 -0.0000 26.2537 -10.0439 21.1857 -12.4189 -63.6917 36.9871 72.0857 6.6149 -0.0000 39.4359 -0.7728 3.2942 13.2102 32.8623 0.0000 -24.3270 6.3579 7.8152 0.1014 -4.6403 0.0000 -0.0000 -17.1189 26.2422 4.1573 27.1355 0.0000 -0.0000 6.5382 -9.9011 1.5992 -2.4179 -0.0000 0.0000 -18.0333 -30.3481 -4.4704 23.8816 0.0000 -0.0000
 18.6537 35.6638 -18.9598 -178.5796 -5.0341 179.4248 -11.8057 1.3179 -1.1026 10.0765 -6.4563 -0.5400 -53.6202 -27.2538 -4.4678 -37.7908 -36.5271 -87.5619 2.3471 0.0000 17.7116 0.2779 4.3848 -3.6295 33.1476 -0.0000 26.2537 -9.9524 21.2786 -12.4578 -63.4728 36.7223 71.7853 6.5745 -0.0000 39.2765 -0.8329 3.5063 13.3711 32.8623 0.0000 -24.3270 6.3744 7.8114 0.1067 -4.6163 0.0000 -0.0000 -17.1003 26.2169 4.1524 27.1695 0.0000 0.0000 6.5677 -9.9459 1.6003 -2.4060 0.0000 0.0000 -17.9868 -30.3475 -4.3605 23.7430 -0.0000 -0.0000
 18.6560 35.6648 -18.9536 -178.5044 -5.0465 179.4319 -11.7126 1.2785 -1.1077 10.1746 -6.4484 -0.5295 -53.6228 -27.3870 -4.5108 -37.0948 -36.6020 -86.9708 2.1400 0.0000 17.7764 0.2675 4.0594 -3.7727 33.1476 -0.0000 26.2537 -9.9080 21.3096 -12.5189 -63.2969 36.2844 71.5883 6.5648 -0.0000 39.3539 -0.8419 3.5507 13.3485 32.8623 0.0000 -24.3270 6.4313 7.8021 0.1108 -4.6021 0.0000 0.0000 -17.0777 26.1986 4.2110 27.0971 0.0000 -0.0000 6.6329 -9.9875 1.6017 -2.3981 0.0000 0.0000 -17.9968 -30.2809 -4.4104 23.8584 0.0000 -0.0000
 18.6595 35.6659 -18.9465 -178.4303 -5.0301 179.4343 -11.6244 1.2474 -1.1184 10.2816 -6.4300 -0.4652 -53.6195 -27.5057 -4.5401 -36.3108 -36.8625 -86.2728 2.0030 0.0000 17.9313 0.2484 3.7913 -3.7508 33.1476 -0.0000 26.2537 -9.8401 21.3139 -12.4729 -62.5054 37.0078 70.8467 6.7826 -0.0000 38.2392 -0.8430 3.5981 13.1947 32.8623 0.0000 -24.3270 6.4928 7.8481 0.1160 -4.6011 0.0000 0.0000 -17.0511 26.1901 4.1651 27.0894 0.0000 -0.0000 6.6907 -10.0165 1.6083 -2.3893 -0.0000 0.0000 -17.9803 -30.2272 -4.3927 23.9022 -0.0000 0.0000
 18.6631 35.6667 -18.9377 -178.3962 -5.0079 179.4294 -11.5899 1.2393 -1.1145 10.4086 -6.4831 -0.4108 -53.5239 -27.5771 -4.4985 -35.6133 -37.1434 -85.5602 1.9150 0.0000 17.9665 0.2452 3.6786 -3.8168 33.1476 -0.0000 26.2537 -9.7470 21.2678 -12.5026 -61.8162 37.2215 70.1489 7.0627 -0.0000 37.5623 -0.9128 3.9097 13.1521 32.8623 0.0000 -24.3270 6.5057 7.8865 0.1273 -4.5887 -0.0000 -0.0000 -17.0527 26.1646 4.1754 27.1323 -0.0000 -0.0000 6.6952 -10.0435 1.6150 -2.3593 0.0000 0.0000 -17.9737 -30.1798 -4.3585 23.9303 0.0000 -0.0000
 18.6668 35.6677 -18.9345 -178.2753 -4.9553 179.4357 -11.4404 1.2584 -1.1077 10.5060 -6.4331 -0.4126 -53.6020 -27.6533 -4.4983 -34.6145 -37.3728 -84.6744 1.7097 0.0000 17.9735 0.2498 3.7360 -3.8279 33.1476 -0.0000 26.2537 -9.7758 21.2565 -12.4741 -61.8582 36.0906 69.9379 6.8542 -0.0000 38.6061 -1.0000 4.3222 13.0406 32.8623 0.0000 -24.3270 6.6305 7.9527 0.1285 -4.5997 0.0000 -0.0000 -17.0291 26.1520 4.1902 27.0329 -0.0000 0.0000 6.8086 -10.0411 1.6190 -2.3690 0.0000 0.0000 -17.9019 -30.1796 -4.1993 23.7197 -0.0000 0.0000
 18.6706 35.6668 -18.9285 -178.2011 -4.9014 179.4351 -11.3456 1.2776 -1.1141 10.6105 -6.3974 -0.3424 -53.5161 -27.7075 -4.4000 -33.7695 -37.5853 -83.7508 1.6529 0.0000 17.9770 0.2566 3.6870 -3.9841 33.1476 -0.0000 26.2537 -9.6580 21.2321 -12.3790 -61.6573 35.5136 69.3688 6.7631 -0.0000 39.3280 -1.0902 4.8198 12.7609 32.8623 0.0000 -24.3270 6.6980 8.0144 0.1356 -4.5976 -0.0000 0.0000 -17.0391 26.1456 4.1587 27.0714 0.0000 -0.0000 6.8630 -10.0321 1.6300 -2.3618 -0.0000 0.0000 -17.9411 -30.1620 -4.2168 23.9281 0.0000 -0.0000
 18.6737 35.6669 -18.9239 -178.1177 -4.8261 179.4387 -11.2426 1.3072 -1.0924 10.7041 -6.3615 -0.3492 -53.3673 -27.6697 -4.2761 -32.9292 -37.9848 -82.7386 1.6962 0.0000 18.0125 0.2470 3.6434 -3.8809 33.1476 -0.0000 26.2537 -9.4743 20.9760 -12.5284 -60.9682 36.0415 68.5744 6.9752 -0.0000 38.6865 -1.0814 4.8302 12.6360 32.8623 0.0000 -24.3270 6.7885 8.0712 0.1357 -4.6090 -0.0000 0.0000 -17.0374 26.1494 4.1594 27.1622 -0.0000 -0.0000 6.9211 -10.0665 1.6285 -2.3412 -0.0000 -0.0000 -17.9456 -30.0471 -4.2315 23.9435 0.0000 -0.0000
 18.6767 35.6662 -18.9213 -178.0301 -4.7587 179.4327 -11.1398 1.3032 -1.0524 10.8204 -6.3463 -0.3595 -53.1882 -27.5859 -4.1307 -32.0008 -38.4223 -81.5714 1.7479 0.0000 17.9595 0.2663 3.7881 -4.0238 33.1476 -0.0000 26.2537 -9.5033 20.8567 -12.5706 -59.9736 36.6433 67.6438 6.9649 -0.0000 38.3774 -1.0455 4.8782 12.1127 32.8623 0.0000 -24.3270 6.8754 8.1410 0.1479 -4.6103 -0.0000 0.0000 -17.0438 26.1408 4.1795 26.9760 0.0000 -0.0000 6.9930 -10.0788 1.6330 -2.3272 -0.0000 -0.0000 -17.9002 -29.9076 -4.2364 23.8855 0.0000 0.0000
 18.6801 35.6650 -18.9189 -177.9432 -4.6822 179.4395 -11.0306 1.3154 -1.0384 10.9329 -6.3087 -0.3735 -52.9906 -27.4906 -3.9425 -31.0273 -38.8365 -80.3279 1.8368 0.0000 18.0833 0.2593 3.7170 -3.9936 33.1476 -0.0000 26.2537 -9.6352 20.7019 -12.5344 -59.1261 36.7158 66.7945 6.9890 -0.0000 38.4381 -1.0291 4.8593 11.9725 32.8623 0.0000 -24.3270 6.9761 8.1718 0.1462 -4.6253 -0.0000 0.0000 -17.0510 26.1736 4.1757 26.9859 -0.0000 0.0000 7.0766 -10.0383 1.6346 -2.3493 0.0000 0.0000 -17.9234 -29.9212 -4.1953 23.9889 -0.0000 0.0000
 18.6830 35.6641 -18.9163 -177.8693 -4.6050 179.4305 -10.9241 1.3380 -1.0117 11.0170 -6.2321 -0.3716 -52.7768 -27.3429 -3.7085 -30.0416 -39.2977 -79.0260 1.9498 0.0000 18.1341 0.2549 3.6370 -4.0110 33.1476 -0.0000 26.2537 -9.3265 20.3407 -12.5857 -58.8018 36.8316 65.9293 6.8933 -0.0000 38.4311 -0.9554 4.6403 11.6473 32.8623 0.0000 -24.3270 7.0551 8.2129 0.1596 -4.6286 0.0000 -0.0000 -17.0693 26.1954 4.1865 26.9539 -0.0000 0.0000 7.1422 -10.0062 1.6412 -2.3567 -0.0000 0.0000 -17.8949 -29.8271 -4.2604 23.9947 -0.0000 0.0000
 18.6868 35.6635 -18.9126 -177.8298 -4.5168 179.4215 -10.8600 1.3698 -0.9840 11.1108 -6.1968 -0.3699 -52.7046 -27.2015 -3.5287 -28.7367 -39.6507 -77.5418 1.9226 0.0000 18.2063 0.2889 3.8359 -4.3104 33.1476 -0.0000 26.2537 -9.4232 20.0690 -12.5692 -58.0898 36.6825 65.0739 6.7472 -0.0000 38.5698 -0.9080 4.5104 11.3942 32.8623 0.0000 -24.3270 7.0982 8.2542 0.1706 -4.6309 -0.0000 -0.0000 -17.1048 26.2247 4.1782 27.0234 0.0000 0.0000 7.1645 -9.9917 1.6516 -2.3521 -0.0000 -0.0000 -17.8883 -29.8008 -4.1507 23.9778 -0.0000 0.0000
 18.6908 35.6624 -18.9101 -177.7984 -4.4216 179.4083 -10.8109 1.4213 -0.9745 11.2102 -6.2152 -0.3272 -52.4697 -27.0346 -3.2719 -27.6338 -39.7930 -76.0591 1.9374 0.0000 18.3990 0.2993 3.8696 -4.4258 33.1476 -0.0000 26.2537 -9.4828 19.8031 -12.4693 -56.9184 36.9457 63.8004 6.8941 -0.0000 38.2062 -0.8071 4.0646 11.2411 32.8623 0.0000 -24.3270 7.1440 8.2732 0.1831 -4.6429 -0.0000 0.0000 -17.1388 26.2750 4.2204 27.2176 0.0000 0.0000 7.1821 -9.9775 1.6627 -2.3499 -0.0000 -0.0000 -17.8800 -29.7296 -4.1444 23.9970 -0.0000 -0.0000
